<svg width="563" height="116" fill="none" xmlns="http://www.w3.org/2000/svg"><path d="M4.464 116c-1.212 0-2.26-.442-3.141-1.326C.44 113.79 0 112.741 0 111.526V4.474C0 3.26.44 2.21 1.323 1.326 2.205.442 3.252 0 4.464 0h31.58c1.213 0 2.26.442 3.142 1.326.882.884 1.323 1.933 1.323 3.148v32.812l18.683-33.64c.551-.884 1.323-1.713 2.315-2.486C62.609.387 64.042 0 65.806 0h36.54c.992 0 1.819.387 2.48 1.16.772.663 1.158 1.491 1.158 2.486 0 .663-.166 1.27-.496 1.823L75.726 55.514l32.573 55.017c.33.442.496 1.05.496 1.823 0 .995-.386 1.878-1.158 2.652-.661.663-1.488.994-2.48.994H67.459c-2.204 0-3.858-.497-4.96-1.491-.992-1.105-1.598-1.879-1.819-2.32L40.51 76.063v35.463c0 1.215-.441 2.264-1.323 3.148-.882.884-1.93 1.326-3.142 1.326H4.464ZM362.112 116c-1.213 0-2.26-.442-3.142-1.326-.882-.884-1.323-1.933-1.323-3.148V4.474c0-1.215.441-2.264 1.323-3.148C359.852.442 360.899 0 362.112 0h84.82c1.212 0 2.259.442 3.141 1.326.882.884 1.323 1.933 1.323 3.148V27.84c0 1.215-.441 2.265-1.323 3.149-.882.883-1.929 1.325-3.141 1.325h-49.603v10.44h45.965c1.213 0 2.26.442 3.142 1.326.881.884 1.322 1.933 1.322 3.149V68.77c0 1.216-.441 2.265-1.322 3.149-.882.884-1.929 1.326-3.142 1.326h-45.965v10.44h50.925c1.213 0 2.26.442 3.142 1.325.882.884 1.323 1.934 1.323 3.149v23.366c0 1.215-.441 2.264-1.323 3.148-.882.884-1.929 1.326-3.142 1.326h-86.142ZM472.393 116c-1.213 0-2.26-.442-3.142-1.326-.881-.884-1.322-1.933-1.322-3.148V4.474c0-1.215.441-2.264 1.322-3.148C470.133.442 471.18 0 472.393 0h84.82c1.213 0 2.26.442 3.141 1.326.882.884 1.323 1.933 1.323 3.148V27.84c0 1.215-.441 2.265-1.323 3.149-.881.883-1.928 1.325-3.141 1.325h-49.602v10.44h45.965c1.212 0 2.259.442 3.141 1.326.882.884 1.323 1.933 1.323 3.149V68.77c0 1.216-.441 2.265-1.323 3.149-.882.884-1.929 1.326-3.141 1.326h-45.965v10.44h50.925c1.212 0 2.259.442 3.141 1.325.882.884 1.323 1.934 1.323 3.149v23.366c0 1.215-.441 2.264-1.323 3.148-.882.884-1.929 1.326-3.141 1.326h-86.143Z" fill="#fff"/><path fill-rule="evenodd" clip-rule="evenodd" d="M222.5 58c0 32.032-25.967 58-58 58s-58-25.968-58-58 25.967-58 58-58 58 25.968 58 58Zm-31.636 0c0 14.56-11.804 26.364-26.364 26.364S138.136 72.56 138.136 58 149.94 31.636 164.5 31.636c3.791 0 7.395.8 10.652 2.241l10.129-10.129 16.128-3.277-2.481 13.026-11.227 11.972A26.25 26.25 0 0 1 190.864 58Zm-4.53-31.176a3.722 3.722 0 0 1 5.264 0l2.193 2.193a4.963 4.963 0 0 1 0 7.019l-29.692 29.691a1.241 1.241 0 0 1-1.755 0l-3.07-3.07a6.202 6.202 0 0 1 0-8.773l27.06-27.06ZM110.842 56.76a.93.93 0 1 0 0 1.861h19.54a.93.93 0 1 0 0-1.86h-19.54Zm52.883-52.882a.93.93 0 0 1 .93.93v19.54a.93.93 0 0 1-1.861 0V4.808a.93.93 0 0 1 .931-.93Zm36.735 91.864a.93.93 0 0 0 1.316-1.316l-13.817-13.817a.93.93 0 0 0-1.316 1.316l13.817 13.817Zm-74.786 0a.93.93 0 0 1 0-1.316L139.49 80.61a.93.93 0 0 1 1.316 1.315l-13.817 13.817a.93.93 0 0 1-1.315 0Zm71.393-38.982a.93.93 0 1 0 0 1.861h19.54a.93.93 0 0 0 0-1.86h-19.54Zm-33.342 33.343a.93.93 0 0 1 .93.93v19.54a.931.931 0 0 1-1.861 0v-19.54a.93.93 0 0 1 .931-.93Zm-24.235-55.33a.93.93 0 0 0 1.316-1.317l-13.817-13.817a.93.93 0 0 0-1.316 1.316l13.817 13.817Zm29.944-17.19a.5.5 0 0 1 .116.698c-.068.096-.136.3-.189.607-.036.21-.057.416-.076.61l-.025.232c-.031.266-.089.54-.141.787l-.039.188c-.063.308-.105.572-.099.817V21.56l.001.004V21.603l.001.003V21.645l.001.003V21.687l.001.004v.035l.001.004V21.769l.001.003V21.811l.001.003V21.853l.001.004V21.896l.001.003V21.938l.001.003V21.98l.001.004V22.02l.001.003V22.062l.001.003V22.104l.001.004V22.147l.001.003V22.189l.001.003V22.231l.001.004V22.274l.001.003V22.313l.001.003V22.355l.001.003V22.397l.001.004V22.44l.001.003V22.482l.001.003V22.524l.001.004V22.567l.001.003V22.61l.001.003V22.648l.001.003V22.691l.001.003V22.733l.001.003V22.775l.001.004V22.818l.001.003V22.86l.001.003V22.902l.001.004v.035l.001.004V22.984l.001.003V23.026l.001.003V23.068l.001.004V23.11l.001.003V23.153l.001.003v.033c.003.124-.016.438-.035.63-.005.049-.012.102-.019.146a.837.837 0 0 1-.02.09c-.005.016-.016.054-.039.097a.506.506 0 0 1-.325.26.5.5 0 0 1-.559-.237.551.551 0 0 1-.056-.14.73.73 0 0 1-.017-.11 2.595 2.595 0 0 1-.011-.21.498.498 0 0 1 .072-.27c.007-.107.01-.2.01-.234v-.003l-.001-.003V23.166l-.001-.003V23.127l-.001-.004V23.084l-.001-.003V23.042l-.001-.003V23l-.001-.004V22.957l-.001-.003V22.915l-.001-.003V22.873l-.001-.004v-.035l-.001-.004V22.791l-.001-.003V22.749l-.001-.003V22.706l-.001-.003V22.664l-.001-.003V22.622l-.001-.003V22.579l-.001-.003V22.54l-.001-.003V22.498l-.001-.003V22.456l-.001-.004V22.413l-.001-.003V22.371l-.001-.003V22.329l-.001-.004V22.286l-.001-.003V22.247l-.001-.003V22.205l-.001-.003V22.163l-.001-.004V22.12l-.001-.003V22.078l-.001-.003V22.035l-.001-.003V21.993l-.001-.003V21.954l-.001-.003V21.912l-.001-.004V21.87l-.001-.003V21.827l-.001-.003V21.785l-.001-.004V21.742l-.001-.003V21.7l-.001-.003V21.658l-.001-.004v-.035l-.001-.004V21.576l-.001-.003V21.544c-.009-.366.054-.724.119-1.04l.046-.223a6.902 6.902 0 0 0 .14-.854c.021-.202.048-.463.089-.709.055-.32.15-.724.361-1.02a.5.5 0 0 1 .698-.115Zm4.293 2.684a.5.5 0 0 0-.217-.972c-.311.04-.506.248-.614.415a1.921 1.921 0 0 0-.223.528 5.381 5.381 0 0 0-.107.49l-.023.132a2.797 2.797 0 0 1-.035.187c-.057.245-.127.486-.201.742l-.047.16c-.089.31-.18.64-.242.984-.026.15-.07.296-.123.472l-.06.205c-.072.25-.15.558-.142.882.002.075-.003.154-.01.24l-.002.025c-.005.065-.014.174-.008.256a.541.541 0 0 0 .195.393.517.517 0 0 0 .45.103.555.555 0 0 0 .214-.105.872.872 0 0 0 .151-.161 2.65 2.65 0 0 0 .122-.176.5.5 0 0 0-.112-.668c.007-.145.044-.308.103-.511.013-.048.029-.099.045-.152a5.72 5.72 0 0 0 .162-.627 8.64 8.64 0 0 1 .218-.882l.044-.15c.074-.256.153-.527.217-.802.018-.075.036-.18.053-.278l.016-.094a4.38 4.38 0 0 1 .085-.395c.033-.117.065-.195.091-.24Zm-1.852 4.384.002-.002-.002.002Zm6.947-3.591a.5.5 0 0 1 .171.686c-.453.755-.847 1.526-1.249 2.312-.202.395-.406.794-.62 1.196-.109.206-.218.399-.325.591-.146.26-.291.52-.436.803-.241.472-.431.922-.517 1.346a.5.5 0 0 1-.98-.202c.113-.555.351-1.1.606-1.6.146-.285.316-.59.475-.874.107-.191.208-.374.294-.535.198-.37.393-.753.591-1.14.412-.805.834-1.63 1.304-2.412a.5.5 0 0 1 .686-.171Zm24.713 28.197a.5.5 0 0 1-.401.582c-.997.184-1.861.61-2.83 1.089-.12.058-.25.125-.388.195-.353.18-.757.386-1.161.56-.564.243-1.199.459-1.808.472a.5.5 0 0 1-.024-1c.412-.009.904-.16 1.434-.39.373-.16.73-.342 1.072-.517.146-.074.29-.148.431-.217l.049-.024c.935-.462 1.906-.942 3.043-1.151.271-.05.532.129.583.4Zm-8.798-.413a.498.498 0 0 1 .413-.573c1.002-.162 1.874-.568 2.854-1.025.121-.056.253-.12.393-.187.356-.172.765-.369 1.173-.534.569-.23 1.208-.431 1.818-.431a.5.5 0 1 1 .001 1c-.412 0-.907.14-1.443.358-.376.152-.736.326-1.082.493l-.436.207-.049.023c-.946.441-1.927.899-3.068 1.083a.5.5 0 0 1-.574-.414Zm-2.062-5.882a.5.5 0 0 1 .071-.703c.786-.641 1.339-1.43 1.959-2.315.077-.109.159-.23.246-.358.223-.327.479-.702.75-1.05.377-.483.83-.977 1.358-1.282a.501.501 0 0 1 .502.866c-.358.206-.715.575-1.071 1.031-.25.32-.475.651-.691.969-.093.135-.183.268-.274.397l-.031.045c-.598.854-1.219 1.741-2.115 2.471a.5.5 0 0 1-.704-.071Zm8.92-.841a.5.5 0 0 1-.434.558c-.263.033-.953.186-1.656.376-.346.094-.685.194-.963.287a3.3 3.3 0 0 0-.539.215c-.23.144-.413.319-.613.528l-.116.123a6.917 6.917 0 0 1-.573.564 2.68 2.68 0 0 0-.359.414l-.15.201c-.104.14-.218.294-.329.433a3.745 3.745 0 0 1-.601.622c-.229.178-.522.335-.872.342a.5.5 0 0 1-.023-1c.055 0 .145-.026.28-.131.135-.105.278-.26.434-.457.101-.127.193-.252.289-.38l.174-.235a3.66 3.66 0 0 1 .51-.573c.17-.143.31-.293.471-.464l.141-.15c.217-.227.469-.474.806-.685.178-.11.465-.22.751-.315.303-.102.662-.207 1.02-.304.705-.19 1.454-.361 1.793-.403a.501.501 0 0 1 .559.434Zm-3.887 20.111c.056-.007.14-.014.257-.015.308-.003.73.03 1.183.08.448.049.908.112 1.284.166l.213.03c.268.039.489.07.587.078.398.032.795.117 1.231.21l.215.047c.504.107 1.057.212 1.625.2a.5.5 0 1 0-.024-1c-.441.01-.894-.072-1.395-.178a30.25 30.25 0 0 1-.203-.044c-.431-.093-.901-.194-1.371-.232-.063-.005-.233-.03-.49-.066l-.248-.035a41.677 41.677 0 0 0-1.317-.17c-.46-.05-.932-.09-1.301-.086a2.502 2.502 0 0 0-.525.05.913.913 0 0 0-.273.11.608.608 0 0 0-.278.378.5.5 0 0 0 .83.477Zm-.062.013h.002Zm-1.037 3.307a91.55 91.55 0 0 1-.184.004.5.5 0 0 1-.024-1l.212-.005c.803-.02 1.692-.043 2.568.25.404.134.81.284 1.206.43l.398.146c.556.203 1.22.312 1.887.422l.393.065a.5.5 0 0 1-.167.986l-.359-.06c-.664-.108-1.442-.235-2.096-.473l-.414-.152a38.282 38.282 0 0 0-1.164-.416c-.701-.234-1.419-.217-2.256-.197Zm-2.77 2.51a.5.5 0 0 1 .525-.473c.878.046 1.815.382 2.59.66l.389.138c.462.16.936.298 1.424.44l.143.041c.533.155 1.082.318 1.616.517.24.09.487.155.763.228l.08.021c.299.08.629.17.954.307.075.032.15.06.228.09l.067.026.005.002c.08.03.204.079.294.134.026.016.07.045.113.087a.516.516 0 0 1-.001.755.56.56 0 0 1-.203.121.998.998 0 0 1-.229.045c-.07.007-.152.01-.246.013a.5.5 0 0 1-.499-.385 6.77 6.77 0 0 0-.822-.25c-.268-.071-.564-.15-.852-.257a22.193 22.193 0 0 0-1.546-.494l-.145-.042c-.484-.14-.983-.285-1.471-.454-.144-.05-.287-.102-.43-.153-.783-.278-1.556-.554-2.273-.591a.5.5 0 0 1-.474-.526Zm-3.845 10.012a.5.5 0 0 1 .622-.336c.161.048.276.125.356.187.042.031.066.051.084.066.023.018.036.029.062.045a.44.44 0 0 0 .055.007h.026c.035.003.094.006.132.01.069.005.157.017.253.047.348.108.638.376.831.558l.093.088c.183.173.303.287.419.352.078.044.183.093.321.158.131.061.285.134.435.215.149.08.309.177.45.293.139.114.289.27.379.474.047.108.232.32.519.519.292.201.54.284.646.281a.5.5 0 1 1 .024 1c-.431.01-.897-.224-1.237-.458-.344-.237-.709-.58-.867-.94a.381.381 0 0 0-.097-.103 1.888 1.888 0 0 0-.292-.187 7.478 7.478 0 0 0-.403-.198c-.121-.057-.254-.12-.364-.18-.238-.133-.465-.352-.636-.514l-.075-.073c-.218-.205-.347-.301-.441-.33-.017-.005-.027-.006-.075-.008l-.105-.007a1.062 1.062 0 0 1-.661-.256l-.044-.035-.036-.029a.417.417 0 0 0-.037-.024.5.5 0 0 1-.337-.622Zm1.12-.039h.002-.002Zm.604-3.543a.5.5 0 0 0-.539-.41c-.04 0-.087.002-.122.004a.797.797 0 0 0-.113.014h-.002a.541.541 0 0 0-.27.139.507.507 0 0 0-.112.578c.046.105.117.17.138.19.056.052.127.1.182.138.136.09.285.18.424.265l.161.099c.189.117.354.225.491.339.401.331.907.584 1.332.796a15.606 15.606 0 0 0 1.717.771l.236.094c.549.22 1.053.437 1.492.713a.499.499 0 1 0 .532-.845c-.523-.33-1.102-.575-1.652-.796l-.247-.098c-.471-.188-.914-.365-1.326-.579l-.362-.184c-.413-.206-.782-.392-1.085-.642a5.4 5.4 0 0 0-.603-.42l-.188-.114a7.58 7.58 0 0 0-.084-.052Zm.973-2.547a.5.5 0 0 1 .679-.196c.167.092.325.14.533.203.1.03.21.063.338.107.728.246 1.472.632 2.106.98.708.388 1.446.7 2.211 1.005l.488.193c.606.24 1.228.484 1.839.764a.5.5 0 1 1-.414.91c-.585-.268-1.175-.5-1.778-.738l-.505-.2c-.772-.308-1.557-.638-2.321-1.058-.629-.345-1.307-.693-1.945-.91-.061-.02-.133-.041-.211-.065-.246-.075-.557-.17-.823-.315a.5.5 0 0 1-.197-.68Zm-7.345 10.963a.5.5 0 0 1 .6.376c.154.663.589 1.413 1.039 2.013.136.18.235.392.31.569.043.098.074.176.102.246.032.08.06.152.098.235.047.105.098.21.152.322l.035.073c.067.136.137.283.2.435.127.305.237.654.247 1.044a.5.5 0 1 1-1 .023c-.005-.216-.067-.435-.17-.683a7.169 7.169 0 0 0-.177-.385l-.032-.067a12.166 12.166 0 0 1-.167-.353c-.038-.084-.086-.203-.13-.312l-.077-.187a1.824 1.824 0 0 0-.19-.36c-.484-.645-1.015-1.527-1.214-2.39a.5.5 0 0 1 .374-.599Zm-2.586.862a.501.501 0 0 1 .512.489c.02.845.337 1.863.661 2.737v.002c.46 1.24.861 2.32.894 3.74a.5.5 0 0 1-.999.022c-.03-1.232-.369-2.167-.833-3.417-.326-.88-.698-2.036-.723-3.062a.5.5 0 0 1 .488-.51Zm-14.886 6.214a.501.501 0 0 1 .512.489c.014.587.061 1.116.271 1.543.534 1.089.659 2.214.685 3.32a.499.499 0 1 1-.999.023c-.026-1.054-.145-2.008-.584-2.903-.315-.643-.359-1.37-.373-1.96a.499.499 0 0 1 .488-.512Zm3.266-.073a.501.501 0 0 1 .512.489c.007.333.014.472.05.594.031.1.093.223.295.456.58.667 1.024 1.322 1.445 2.073l.029.052c.061.11.129.232.209.34a.731.731 0 0 0 .098.111.501.501 0 0 1-.142.988.892.892 0 0 1-.484-.208 1.694 1.694 0 0 1-.275-.296c-.123-.166-.226-.353-.285-.459l-.022-.04a11 11 0 0 0-1.327-1.906c-.246-.283-.411-.531-.499-.828-.078-.263-.085-.536-.091-.815l-.001-.04a.499.499 0 0 1 .488-.511Zm2.654 4.128-.003-.002.003.002Zm.878-5.49a.5.5 0 0 1 .692.147c.364.56.598 1.065.83 1.65.094.236.217.454.359.704l.093.166c.172.309.36.667.464 1.082.099.39.088.744.054 1.06a8.852 8.852 0 0 1-.057.445c-.02.143-.036.275-.044.408a.5.5 0 1 1-.998-.063 6.286 6.286 0 0 1 .065-.582c.015-.111.029-.212.04-.315.027-.258.028-.48-.03-.71-.07-.28-.2-.54-.367-.839a25.033 25.033 0 0 0-.081-.143c-.142-.251-.305-.539-.427-.846-.218-.549-.423-.988-.739-1.472a.5.5 0 0 1 .146-.691Zm2.581-1.478a.5.5 0 0 1 .663-.247c.174.08.274.216.327.33a.958.958 0 0 1 .076.274 2.192 2.192 0 0 1 .019.169c.003.031.006.044.006.045.122.385.333.733.582 1.143l.064.106c.232.383.413.8.577 1.181l.06.14c.188.431.363.81.594 1.13.07.099.151.222.233.345l.053.082c.103.156.211.317.324.468.114.153.224.285.329.387a.76.76 0 0 0 .229.17.5.5 0 0 1-.352.935 1.717 1.717 0 0 1-.573-.388 4.246 4.246 0 0 1-.435-.508 11.912 11.912 0 0 1-.416-.605c-.081-.122-.147-.223-.204-.303-.3-.417-.512-.886-.699-1.315a5.778 5.778 0 0 0-.061-.14c-.168-.39-.32-.742-.514-1.063a10.134 10.134 0 0 1-.072-.117c-.239-.393-.514-.844-.674-1.353-.029-.091-.039-.181-.045-.235l-.006-.058-.002-.021-.001-.013a.5.5 0 0 1-.082-.54Zm-17.378 4.357a.5.5 0 0 1 .698.112c.177.245.204.5.193.703-.005.097-.02.188-.032.26l-.01.058-.021.13-.042.314c-.063.46-.121.886-.121 1.314.001.624-.164 1.189-.306 1.675a.674.674 0 0 1-.013.044c-.15.516-.27.95-.26 1.409a.5.5 0 0 1-.999.022c-.015-.633.152-1.207.297-1.704l.002-.009c.152-.519.28-.961.279-1.438 0-.503.07-1.01.133-1.473l.039-.284c.008-.065.02-.133.029-.187l.007-.04c.011-.066.018-.11.02-.147a.28.28 0 0 0-.002-.056l-.003-.005a.5.5 0 0 1 .112-.698Zm-3.711-.855a.5.5 0 0 1 .231.67c-.403.827-.677 1.748-.914 2.715-.096.39-.189.8-.282 1.215-.131.58-.263 1.167-.408 1.715a.499.499 0 1 1-.966-.258 44.1 44.1 0 0 0 .389-1.638c.093-.415.188-.837.295-1.274.243-.99.537-1.991.987-2.915a.499.499 0 0 1 .668-.23Zm-3.708-1.15a.5.5 0 0 1 .145.692l-.066.1c-.591.903-1.216 1.858-1.536 2.782-.114.328-.286.684-.444 1.013-.072.15-.142.295-.202.429-.209.466-.342.868-.333 1.24a.499.499 0 1 1-.999.023c-.015-.609.199-1.183.42-1.674.085-.19.169-.364.248-.528.142-.294.269-.557.365-.831.362-1.046 1.049-2.094 1.62-2.965l.09-.138a.5.5 0 0 1 .692-.144Zm-3.854-1.535a.5.5 0 0 1-.058.704c-.425.36-.843 1.033-1.148 1.603-.289.538-.609 1.089-.934 1.607-.243.388-.55.712-.819.996l-.008.009c-.277.292-.516.543-.702.827a.5.5 0 1 1-.837-.548c.237-.361.53-.67.788-.942l.033-.035c.277-.292.515-.548.697-.839.313-.5.622-1.03.9-1.549.306-.57.799-1.398 1.383-1.892a.5.5 0 0 1 .705.059Zm-6.325-3.97a.5.5 0 0 1 .231.67 95.99 95.99 0 0 0-.545 1.144c-.416.887-.845 1.8-1.318 2.65l-.028.051c-.238.428-.482.868-.781 1.3l.005-.007s-.01.02-.029.066l-.031.084-.012.044a1.996 1.996 0 0 1-.048.14.373.373 0 0 1-.044.089c-.007.01-.036.058-.087.104a.498.498 0 0 1-.657.013.491.491 0 0 1-.159-.241c-.015-.05-.018-.09-.02-.109a.626.626 0 0 1 .001-.083l.005-.032a.174.174 0 0 1 .006-.03l.006-.026c.003-.012.006-.024.01-.034a1.373 1.373 0 0 1 .231-.548c.271-.39.494-.793.738-1.231l.02-.037c.456-.82.86-1.68 1.27-2.552.186-.397.374-.796.568-1.194a.499.499 0 0 1 .668-.23Zm3.27 2.766a.5.5 0 0 1-.198.678c-.518.282-.913.775-1.288 1.396-.16.266-.309.542-.463.826l-.074.137c-.177.326-.363.662-.567.97a9.579 9.579 0 0 0-.491.867l-.01.02c-.159.302-.331.632-.537.947a.5.5 0 1 1-.837-.548c.179-.274.332-.566.497-.883h.001c.161-.31.335-.642.544-.958.177-.265.343-.565.52-.892l.073-.134c.152-.283.314-.582.488-.87.401-.665.909-1.344 1.663-1.756a.5.5 0 0 1 .679.2Zm-8.067-7.664a.499.499 0 0 1-.094.7c-.421.322-.879.607-1.317.88l-.023.013c-.437.271-.854.53-1.238.817-.754.562-1.49.999-2.249 1.45l-.379.224h-.001a.744.744 0 0 0-.023.017l-.068.046-.074.051-.13.09a12.85 12.85 0 0 1-.539.356 4.129 4.129 0 0 1-.274.155c-.078.04-.189.091-.302.115a.61.61 0 0 1-.297-.008.542.542 0 0 1-.374-.397.598.598 0 0 1 .024-.333.99.99 0 0 1 .087-.183.5.5 0 0 1 .622-.208 12.115 12.115 0 0 0 .587-.392c.104-.072.201-.14.248-.167l.388-.23c.76-.452 1.447-.86 2.155-1.388.419-.312.868-.59 1.293-.855l.038-.024c.444-.275.862-.536 1.239-.824a.5.5 0 0 1 .701.095Zm-2.351-2.586a.5.5 0 0 1-.216.673c-.904.464-1.831.816-2.75 1.137-.307.107-.61.21-.911.312-.614.208-1.219.413-1.828.645-.129.05-.279.096-.411.137l-.14.044a2.233 2.233 0 0 0-.412.166c-.072.041-.2.101-.292.145l-.039.018a8.64 8.64 0 0 0-.086.04.495.495 0 0 1-.287.1h-.002a.51.51 0 0 1-.468-.291.507.507 0 0 1 .109-.574l.002-.001a.76.76 0 0 1 .151-.104h.001c.043-.023.1-.05.152-.075l.039-.018c.105-.05.188-.088.221-.107.197-.114.417-.19.603-.25l.184-.059c.119-.036.219-.067.317-.105.627-.239 1.263-.455 1.887-.666.297-.101.591-.2.879-.301.905-.317 1.781-.65 2.624-1.083a.5.5 0 0 1 .673.217Zm-7.35 2.418c-.023-.002-.039-.001-.045-.001h-.001l.046.001Zm.229.918-.003.002.003-.002Zm5.748-6.883a.5.5 0 0 1-.275.651c-.808.327-1.62.618-2.53.763-.202.032-.388.056-.564.079-.345.043-.654.083-.973.171l-.346.098c-.546.156-1.154.329-1.738.413a.5.5 0 1 1-.144-.99c.511-.073 1.038-.223 1.582-.378l.377-.106c.389-.108.819-.164 1.202-.213.159-.02.309-.04.445-.061.797-.127 1.525-.384 2.312-.703a.501.501 0 0 1 .652.276Zm-2.124-4.158a.499.499 0 0 1-.445.549c-.368.038-.828.255-1.268.475-.314.157-.637.29-.94.415l-.039.015c-.32.133-.62.257-.906.404-.407.209-.807.409-1.205.608s-.793.396-1.194.602a.5.5 0 0 1-.457-.89c.405-.208.804-.407 1.2-.606l.003-.001c.398-.199.794-.397 1.196-.603.328-.168.664-.308.981-.438l.026-.011c.313-.129.606-.25.887-.39l.005-.002c.401-.2 1.026-.513 1.607-.573a.5.5 0 0 1 .549.446Zm-1.17-4.123a.5.5 0 0 1-.23.669c-1.236.601-2.657.648-3.887.675-.168.004-.756.06-1.303.16a4.47 4.47 0 0 0-.669.165 1.167 1.167 0 0 0-.062.025.5.5 0 0 1-.933-.24c-.007-.303.203-.48.294-.546.111-.08.242-.136.358-.178.238-.087.539-.156.83-.209a11.751 11.751 0 0 1 1.462-.177c1.258-.028 2.461-.083 3.471-.575a.501.501 0 0 1 .669.231Zm-1.723-2.876a.5.5 0 0 1-.328.626c-1.034.322-2.149.415-3.234.437-.543.011-1.088.005-1.615-.002h-.001c-.531-.006-1.043-.012-1.535-.001a.5.5 0 0 1-.024-1c.511-.011 1.038-.005 1.563.002h.006c.53.006 1.059.012 1.584.002 1.053-.022 2.057-.112 2.957-.393a.502.502 0 0 1 .627.33Zm-5.413-7.83a.5.5 0 0 1 .662-.246c.155.07.283.11.399.119.271.017.491.087.682.164.08.032.159.068.23.1l.03.013c.082.036.157.069.234.098.324.124.65.264.967.401l.004.002c.323.14.638.275.956.397.636.245 1.248.42 1.856.436a.501.501 0 0 1-.026 1c-.775-.022-1.51-.242-2.188-.503-.338-.13-.67-.273-.987-.41l-.006-.002c-.322-.14-.63-.272-.931-.387-.105-.04-.2-.082-.284-.119l-.031-.014c-.073-.032-.134-.06-.196-.084a1.17 1.17 0 0 0-.374-.095 2.136 2.136 0 0 1-.749-.207.5.5 0 0 1-.248-.662Zm.685-4.898a.5.5 0 0 1 .699-.104c.639.472 1.386.888 2.128 1.263.303.154.603.326.891.493l.023.013c.299.172.588.338.881.485.585.294 1.146.493 1.736.5a.5.5 0 0 1-.01 1c-.81-.01-1.531-.283-2.175-.607-.322-.162-.634-.341-.931-.512l-.011-.007c-.297-.17-.576-.332-.855-.473-.759-.384-1.564-.83-2.271-1.352a.5.5 0 0 1-.105-.699Zm2.956-2.797a.501.501 0 0 0-.976.164.761.761 0 0 0 .224.5c.096.101.214.186.325.255.224.139.509.268.781.38.276.113.563.217.799.301l.061.022c.217.078.362.13.432.161a8.032 8.032 0 0 1 .502.252c.139.073.288.15.439.223.344.165.744.323 1.189.358.324.025.661.014.962.003l.261-.008a.5.5 0 1 0-.024-1l-.315.01c-.287.01-.545.018-.807-.002-.262-.02-.53-.116-.834-.262a12.056 12.056 0 0 1-.406-.207l-.058-.03a9.351 9.351 0 0 0-.501-.249c-.108-.048-.294-.115-.488-.185l-.076-.027a18.83 18.83 0 0 1-.759-.286 4.621 4.621 0 0 1-.632-.304 1.1 1.1 0 0 1-.099-.069Zm-.028-.024-.003-.004.003.004Zm.414-3.498a.5.5 0 0 1 .663-.247c.367.168.728.336 1.087.504a71.23 71.23 0 0 0 1.956.89c.278.12.57.285.834.433.118.066.231.13.334.184.365.193.686.327 1.01.359a.5.5 0 1 1-.096.995c-.523-.052-.985-.26-1.382-.47a19 19 0 0 1-.417-.231c-.236-.133-.447-.251-.678-.351-.673-.29-1.342-.603-2.004-.913-.355-.166-.709-.33-1.059-.49a.501.501 0 0 1-.248-.663Zm2.238-5.26a.499.499 0 0 1 .687-.165c.98.602 1.77 1.336 2.5 2.084.249.256.488.51.724.76.469.497.927.983 1.438 1.455a.5.5 0 1 1-.679.734 31.672 31.672 0 0 1-1.517-1.537c-.231-.244-.457-.484-.681-.714-.709-.727-1.432-1.392-2.307-1.93a.5.5 0 0 1-.165-.688Zm1.913-1.865a.5.5 0 0 1 .706.027c.433.466 1.084.889 1.814 1.19.729.302 1.497.467 2.147.452a.5.5 0 1 1 .024 1c-.819.018-1.726-.186-2.552-.527-.826-.342-1.61-.837-2.165-1.436a.5.5 0 0 1 .026-.706Zm6.933-7.311a.5.5 0 0 1 .706.046c.245.278.492.54.746.808.144.152.289.306.438.467a12.422 12.422 0 0 1 1.246 1.543c.174.254.376.547.547.854.201.362.38.78.43 1.234a.498.498 0 0 1-.442.551.502.502 0 0 1-.552-.443c-.029-.267-.14-.551-.31-.857-.146-.261-.317-.51-.492-.765l-.095-.139c-.313-.46-.676-.878-1.066-1.3-.132-.143-.27-.29-.411-.438a33.534 33.534 0 0 1-.79-.856.5.5 0 0 1 .045-.705Zm3.52-1.824a.5.5 0 0 1 .537.46c.01.12.076.248.248.46.027.034.059.07.094.112.147.174.349.411.473.666.28.574.509.983.928 1.382.328.312.577.658.796.972.023.031.044.063.066.094.199.285.375.538.589.77.039.041.084.101.123.155l.029-.002a.501.501 0 0 1 .512.489.993.993 0 0 1-.036.31.564.564 0 0 1-.426.393.59.59 0 0 1-.448-.102 1.053 1.053 0 0 1-.169-.15 3.135 3.135 0 0 1-.215-.274l-.025-.034a2.198 2.198 0 0 0-.052-.071l-.027-.037h-.001c-.263-.286-.478-.595-.672-.873l-.067-.096c-.218-.311-.418-.584-.666-.82-.553-.527-.846-1.07-1.138-1.669-.064-.13-.155-.24-.287-.396a15.056 15.056 0 0 1-.157-.19c-.188-.231-.434-.566-.469-1.012a.5.5 0 0 1 .46-.537Zm3.395 5.61Zm.651-6.945a.5.5 0 0 1 .634.314c.192.564.323 1.142.448 1.69l.005.02c.128.562.25 1.094.425 1.606l.045.135c.049.149.094.287.16.41.032.06.055.09.069.106a.5.5 0 0 1-.016.999c-.523.012-.807-.395-.935-.634-.113-.211-.194-.463-.243-.614l-.026-.08c-.194-.568-.327-1.15-.453-1.704l-.001-.004c-.128-.563-.25-1.096-.425-1.61a.5.5 0 0 1 .313-.634Zm1.8 4.294s-.002 0-.006-.004l.006.004Zm1.066-5.586a.5.5 0 0 1 .683.182c.178.307.268.599.331.867.028.118.049.218.069.312.029.14.055.268.099.424.063.22.187.442.354.703l.116.177c.134.204.287.436.405.667.033.063.064.148.088.213l.057.16.035.098c.068.191.145.4.227.58.019.043.038.082.056.117a.501.501 0 0 1 .5.768.724.724 0 0 1-.494.339.688.688 0 0 1-.552-.176c-.192-.167-.33-.436-.42-.634a8.285 8.285 0 0 1-.259-.66l-.038-.107a8.956 8.956 0 0 0-.052-.144l-.037-.099-.001-.001c-.09-.177-.2-.343-.326-.535l-.146-.223c-.176-.275-.369-.6-.475-.972-.051-.18-.093-.38-.129-.55-.018-.085-.034-.163-.05-.227a2.098 2.098 0 0 0-.223-.596.5.5 0 0 1 .182-.683Zm2.181 4.722.001-.001Zm.795-6.834a.5.5 0 0 1 .701.091c.917 1.191 1.61 2.477 2.289 3.738.126.235.253.47.38.702a.5.5 0 1 1-.878.479l-.392-.724c-.679-1.261-1.328-2.464-2.191-3.585a.5.5 0 0 1 .091-.701Zm4.548-1.285c.276-.013.511.2.525.476.056 1.137.236 2.233.421 3.363.088.538.178 1.083.255 1.644a.498.498 0 1 1-.99.136 65.971 65.971 0 0 0-.241-1.55c-.19-1.16-.385-2.351-.444-3.545a.499.499 0 0 1 .474-.524Zm2.158-1.38a.5.5 0 0 1 .64.303c.445 1.237.584 2.449.694 3.678.027.306.061.612.097.925l.008.077c.038.337.076.682.104 1.028l.007.106.001.037.002.041v.007a.5.5 0 0 1-.564.823.852.852 0 0 1-.405-.547 1.327 1.327 0 0 1-.033-.298 30.267 30.267 0 0 0-.106-1.087l-.008-.079c-.035-.31-.071-.627-.099-.945-.11-1.222-.241-2.322-.639-3.43a.5.5 0 0 1 .301-.638Z" fill="#49FF46"/><path fill-rule="evenodd" clip-rule="evenodd" d="M236.579 114.674c.881.884 1.929 1.326 3.141 1.326h48.445c10.582 0 19.841-1.602 27.777-4.806 8.047-3.314 14.385-8.341 19.015-15.08 4.629-6.85 7.164-15.466 7.605-25.851.221-4.53.331-8.562.331-12.097 0-3.646-.11-7.844-.331-12.595-.33-9.942-2.976-18.283-7.936-25.022-4.85-6.74-11.353-11.821-19.51-15.246C306.959 1.768 297.7 0 287.338 0H239.72c-1.212 0-2.26.442-3.141 1.326-.882.884-1.323 1.933-1.323 3.148v107.052c0 1.215.441 2.264 1.323 3.148Zm32.382-86.673C274.229 24.826 280.401 23 287 23c19.33 0 35 15.67 35 35s-15.67 35-35 35-35-15.67-35-35c0-10.586 4.7-20.074 12.127-26.492A35.076 35.076 0 0 1 268.961 28Zm-6.316-3.571c-.379-.579-.901-.93-1.645-.93l1.645.93Z" fill="#fff"/></svg>