<svg width="454" height="124" fill="none" xmlns="http://www.w3.org/2000/svg"><path d="M38.136 93.09c-6.979 0-12.636-5.657-12.636-12.635V12.636C25.5 5.658 31.157 0 38.136 0c6.98 0 12.637 5.657 12.637 12.636V36.79a.847.847 0 0 0 1.526.506L76.535 4.718A11.705 11.705 0 0 1 85.926 0c9.675 0 15.173 11.072 9.325 18.78l-8.586 11.315a18.757 18.757 0 0 0 .02 22.703l53.542 70.293H122.21a25 25 0 0 1-19.672-9.572L65.853 66.745c-3.403-4.338-9.984-4.302-13.338.074a8.44 8.44 0 0 0-1.742 5.135v8.5c0 6.98-5.658 12.637-12.637 12.637ZM248.818 93.09H238c-13.807 0-25-11.192-25-25V25c0-13.807 11.193-25 25-25h10.455c9.575 0 17.848 1.864 24.818 5.59 7 3.698 12.394 9.031 16.182 16 3.818 6.94 5.727 15.259 5.727 24.955 0 9.697-1.894 18.03-5.682 25-3.788 6.94-9.152 12.273-16.091 16-6.939 3.697-15.136 5.546-24.591 5.546ZM238.273 62c0 5.322 4.314 9.636 9.636 9.636 4.606 0 8.53-.742 11.773-2.227 3.273-1.485 5.757-4.045 7.454-7.682 1.728-3.636 2.591-8.697 2.591-15.181 0-6.485-.879-11.546-2.636-15.182-1.727-3.637-4.273-6.197-7.636-7.682-3.334-1.485-7.425-2.227-12.273-2.227a8.909 8.909 0 0 0-8.909 8.909V62ZM331.875 93.09c-13.807 0-25-11.192-25-25V25c0-13.807 11.193-25 25-25h31.909c5.623 0 10.182 4.559 10.182 10.182s-4.559 10.182-10.182 10.182h-23.636a8 8 0 0 0-8 8 8 8 0 0 0 8 8h20.182c5.623 0 10.181 4.558 10.181 10.181 0 5.624-4.558 10.182-10.181 10.182h-20.182a8 8 0 0 0-8 8 8 8 0 0 0 8 8h23.454c5.624 0 10.182 4.559 10.182 10.182s-4.558 10.182-10.182 10.182h-31.727Z" fill="#F2F4F3"/><path d="M404.682 93.09c-10.042 0-18.182-8.14-18.182-18.18 0-10.042-8.14-18.183-18.182-18.183H10.182C4.559 56.727 0 52.17 0 46.546c0-5.624 4.559-10.182 10.182-10.182h358.136c10.042 0 18.182-8.14 18.182-18.182C386.5 8.14 394.64 0 404.682 0h38.727c5.623 0 10.182 4.559 10.182 10.182s-4.559 10.182-10.182 10.182h-23.636a8 8 0 0 0-8 8 8 8 0 0 0 8 8h20.182c5.623 0 10.181 4.558 10.181 10.181 0 5.624-4.558 10.182-10.181 10.182h-20.182a8 8 0 0 0-8 8 8 8 0 0 0 8 8h23.454c5.624 0 10.182 4.559 10.182 10.182s-4.558 10.182-10.182 10.182h-38.545Z" fill="#F2F4F3"/><path d="M201.307 47.818c0 10.364-2.015 19.106-6.046 26.228-4.03 7.09-9.469 12.47-16.318 16.136-6.848 3.636-14.485 5.454-22.909 5.454-8.485 0-16.152-1.833-23-5.5-6.818-3.697-12.242-9.09-16.273-16.181-4-7.122-6-15.834-6-26.137 0-10.363 2-19.09 6-26.182 4.031-7.12 9.455-12.5 16.273-16.136 6.848-3.667 14.515-5.5 23-5.5 8.424 0 16.061 1.833 22.909 5.5 6.849 3.636 12.288 9.015 16.318 16.136 4.031 7.091 6.046 15.819 6.046 26.182Zm-26 0c0-5.576-.743-10.273-2.228-14.09-1.454-3.85-3.621-6.758-6.5-8.728-2.848-2-6.363-3-10.545-3-4.182 0-7.712 1-10.591 3-2.848 1.97-5.015 4.879-6.5 8.727-1.454 3.819-2.182 8.515-2.182 14.091 0 5.576.728 10.288 2.182 14.137 1.485 3.818 3.652 6.727 6.5 8.727 2.879 1.97 6.409 2.954 10.591 2.954 4.182 0 7.697-.984 10.545-2.954 2.879-2 5.046-4.91 6.5-8.727 1.485-3.849 2.228-8.561 2.228-14.137Z" fill="#49FF46"/><path d="M173.949 36.364h27.5v20.363h-27.5V36.364Z" fill="#F2F4F3"/></svg>