<svg width="99" height="98" fill="none" xmlns="http://www.w3.org/2000/svg"><mask id="path-1-inside-1_2490_14" fill="#fff"><path d="M71.3 40.833H27.743m43.555 21.778H54.966ZM.5 49c0 27.062 21.938 49 49 49h48.996s-8.489-20.383-5.091-27.218A48.799 48.799 0 0 0 98.5 49c0-27.062-21.938-49-49-49S.5 21.938.5 49Z"/></mask><path d="M71.3 34.833a6 6 0 0 1 0 12v-12Zm-43.556 12a6 6 0 0 1 0-12v12Zm43.555 9.778a6 6 0 0 1 0 12v-12Zm-16.333 12a6 6 0 0 1 0-12v12ZM98.496 98l5.539-2.307A6 6 0 0 1 98.496 104v-6Zm-5.091-27.218 5.372 2.67-5.373-2.67Zm-22.106-2.17H54.966v-12h16.333v12ZM6.5 49c0 23.748 19.252 43 43 43v12c-30.376 0-55-24.624-55-55h12Zm43 43H98.496v12H49.5V92Zm48.996 6c-5.539 2.307-5.54 2.306-5.54 2.305v-.002l-.003-.006-.007-.017-.023-.055-.08-.197a116.6 116.6 0 0 1-1.25-3.247 117.42 117.42 0 0 1-2.687-8.18c-.892-3.13-1.733-6.68-2.103-10.022-.339-3.06-.438-7.115 1.229-10.468l10.745 5.342c.038-.076-.088.158-.147.92-.055.727-.032 1.69.1 2.885.266 2.4.911 5.229 1.716 8.05.795 2.788 1.698 5.4 2.407 7.328.353.959.655 1.737.865 2.27.105.266.188.47.242.605l.06.147.014.032.002.005h-.001c0-.001 0-.002-5.539 2.305ZM88.032 68.112A42.798 42.798 0 0 0 92.5 49h12c0 8.772-2.058 17.08-5.723 24.453l-10.745-5.341ZM92.5 49c0-23.748-19.252-43-43-43V-6c30.376 0 55 24.624 55 55h-12Zm-43-43c-23.748 0-43 19.252-43 43h-12c0-30.376 24.624-55 55-55V6Zm21.8 40.833H49.52v-12H71.3v12Zm-21.779 0H27.744v-12H49.52v12Z" fill="#F1F7EE" mask="url(#path-1-inside-1_2490_14)"/></svg>