   <svg
                        width="119"
                        height="98"
                        fill="none"
                        xmlns="http://www.w3.org/2000/svg"
                    >
                        <path
                            d="M60.154 17.901c20.051.197 32.612-1.05 34.31 21.18h24.45C118.914 4.642 88.887 0 59.517 0 30.145 0 .12 4.642.12 39.081h24.262c1.877-22.654 15.887-21.374 35.772-21.18ZM12.246 50.153c5.956 0 10.911.357 12.013-5.503.148-.797.234-1.7.234-2.744H0c0 8.717 5.483 8.247 12.246 8.247ZM94.391 41.906c0 1.051.09 1.956.26 2.744 1.161 5.403 6.11 5.068 12.045 5.068 6.795 0 12.304.447 12.304-7.812H94.391Z"
                            fill="#F1F7EE"
                        />
                        <path
                            d="M82.675 32.506c0-1.549-1.785-1.646-3.988-1.646h-3.6c-2.2 0-3.985.097-3.985 1.646v5.3h-25.46v-5.3c0-1.549-1.785-1.646-3.986-1.646h-3.602c-2.201 0-3.986.097-3.986 1.646v6.487c-5.8 6.03-24.78 31.694-25.47 34.801l.01 20.733A3.477 3.477 0 0 0 12.08 98h92.583a3.476 3.476 0 0 0 3.472-3.473V73.69c-.683-3.017-19.657-28.67-25.46-34.699v-6.485ZM44.387 76.584a3.374 3.374 0 0 1-3.375-3.376 3.374 3.374 0 1 1 6.75 0 3.374 3.374 0 0 1-3.375 3.376Zm0-11.576a3.374 3.374 0 0 1-3.375-3.376 3.374 3.374 0 1 1 6.75 0 3.374 3.374 0 0 1-3.375 3.376Zm0-11.574a3.376 3.376 0 1 1 .002-6.75 3.376 3.376 0 0 1-.002 6.75Zm13.887 23.15a3.374 3.374 0 0 1-3.374-3.376 3.374 3.374 0 1 1 6.749 0 3.373 3.373 0 0 1-3.375 3.376Zm0-11.576a3.374 3.374 0 0 1-3.374-3.376 3.374 3.374 0 1 1 6.749 0 3.373 3.373 0 0 1-3.375 3.376Zm0-11.574a3.376 3.376 0 1 1 .002-6.75 3.376 3.376 0 0 1-.002 6.75Zm13.888 23.15a3.373 3.373 0 0 1-3.375-3.376 3.373 3.373 0 0 1 3.375-3.375 3.373 3.373 0 0 1 3.375 3.375 3.373 3.373 0 0 1-3.375 3.376Zm0-11.576a3.373 3.373 0 0 1-3.375-3.376 3.373 3.373 0 0 1 3.375-3.376 3.373 3.373 0 0 1 3.375 3.376 3.373 3.373 0 0 1-3.375 3.376Zm0-11.574a3.373 3.373 0 0 1-3.375-3.376 3.374 3.374 0 1 1 6.75 0 3.373 3.373 0 0 1-3.375 3.376Z"
                            fill="#F1F7EE"
                        />
                    </svg>