<svg width="98" height="98" fill="none" xmlns="http://www.w3.org/2000/svg"><path d="M76.222 92.555V5.445h-62.61a8.167 8.167 0 0 0-8.168 8.166V84.39a8.167 8.167 0 0 0 8.167 8.166h62.611Zm5.445 0h2.722a8.167 8.167 0 0 0 8.166-8.166V13.61a8.167 8.167 0 0 0-8.166-8.167h-2.722v87.111ZM13.61 0H84.39C91.906 0 98 6.094 98 13.611V84.39C98 91.906 91.906 98 84.389 98H13.61C6.094 98 0 91.906 0 84.389V13.61C0 6.094 6.094 0 13.611 0Zm35.986 60.91L59.124 49l-9.529-11.91a2.722 2.722 0 0 1 4.252-3.402L64.737 47.3a2.722 2.722 0 0 1 0 3.402l-10.89 13.61a2.722 2.722 0 1 1-4.25-3.4Z" fill="#49FF46"/></svg>