<svg width="173" height="37" fill="none" xmlns="http://www.w3.org/2000/svg"><path d="M171.585 36.69c.338 0 .642-.118.912-.356.27-.272.405-.595.405-.97V2.327c0-.374-.135-.68-.405-.918-.27-.272-.574-.408-.912-.408h-24.813a1.31 1.31 0 0 0-.962.408c-.27.238-.405.544-.405.918v6.016c0 .34.135.646.405.918s.591.408.962.408h15.648v5.047h-14.534a1.31 1.31 0 0 0-.962.408c-.27.238-.405.544-.405.918v5.506c0 .374.135.697.405.97.27.237.591.356.962.356h14.534v5.15h-16.053a1.31 1.31 0 0 0-.962.408c-.27.272-.405.595-.405.968v5.966c0 .374.135.697.405.968.27.239.591.357.962.357h25.218Z" fill="#EDE0D2"/><path d="M114.725 36.69c-.338 0-.642-.118-.912-.356a1.328 1.328 0 0 1-.405-.97v-13.49H2a2 2 0 0 1-2-2v-2.159a2 2 0 0 1 2-2h111.408V2.325c0-.373.135-.68.405-.917.27-.272.574-.408.912-.408h24.813c.371 0 .692.136.962.408.27.238.405.544.405.918v5.016c0 .34-.135.646-.405.918a1.31 1.31 0 0 1-.962.408H123.89v7.047h13.533c.372 0 .693.136.963.408.27.238.405.544.405.918v3.506c0 .374-.135.697-.405.97-.27.237-.591.356-.963.356H123.89v7.15h16.053c.371 0 .692.136.962.408.27.272.405.595.405.968v4.966c0 .374-.135.697-.405.968-.27.239-.591.357-.962.357h-25.218Z" fill="#2AE61A"/><path d="M7.317 36.2c-.338 0-.642-.119-.912-.357A1.328 1.328 0 0 1 6 34.875V1.835c0-.373.135-.68.405-.917.27-.272.574-.408.912-.408h8.051c.371 0 .675.136.912.408.27.238.405.544.405.918v10.707L24.23 1.58a3.52 3.52 0 0 1 .709-.714c.304-.238.726-.357 1.266-.357h9.267c.303 0 .557.119.76.357a.969.969 0 0 1 .354.765c0 .204-.068.39-.203.56L25.75 17.59l11.546 16.928c.135.136.202.323.202.56 0 .306-.118.578-.354.816a1.027 1.027 0 0 1-.76.306h-9.57c-.642 0-1.131-.153-1.469-.459-.304-.306-.49-.526-.557-.662l-8.102-11.83v11.626c0 .374-.135.697-.405.968-.237.238-.54.357-.912.357H7.317ZM54.426 36.71c-3.241 0-6.06-.51-8.457-1.53-2.363-1.02-4.237-2.549-5.621-4.588-1.35-2.074-2.076-4.64-2.177-7.7-.034-1.427-.051-2.888-.051-4.384 0-1.53.017-3.042.05-4.538.102-3.025.828-5.574 2.178-7.648 1.384-2.073 3.275-3.637 5.672-4.69C48.416.544 51.218 0 54.426 0c3.173 0 5.958.544 8.355 1.632 2.397 1.053 4.287 2.617 5.672 4.69 1.384 2.074 2.11 4.623 2.177 7.648.068 1.496.101 3.008.101 4.538 0 1.496-.033 2.957-.101 4.385-.101 3.059-.844 5.625-2.228 7.699-1.35 2.04-3.224 3.569-5.621 4.589-2.363 1.02-5.148 1.53-8.355 1.53Zm0-8.668c1.417 0 2.582-.424 3.494-1.274.911-.884 1.384-2.278 1.418-4.181a89.603 89.603 0 0 0 0-8.464c-.034-1.257-.27-2.294-.71-3.11-.404-.816-.978-1.41-1.721-1.784-.709-.374-1.536-.561-2.481-.561-.946 0-1.79.187-2.532.56-.743.374-1.334.97-1.773 1.785-.405.816-.624 1.853-.658 3.11a178.805 178.805 0 0 0 0 8.464c.068 1.903.54 3.297 1.418 4.18.911.85 2.093 1.276 3.545 1.276ZM77.242 36.2c-.338 0-.642-.119-.912-.357a1.328 1.328 0 0 1-.405-.968V1.835c0-.373.135-.68.405-.917.27-.272.574-.408.912-.408h13.874c3.275 0 6.11.544 8.508 1.631 2.397 1.054 4.287 2.618 5.671 4.691 1.384 2.074 2.127 4.623 2.228 7.648.068 1.462.102 2.753.102 3.875a81.26 81.26 0 0 1-.102 3.824c-.135 3.195-.86 5.83-2.177 7.903-1.283 2.073-3.106 3.62-5.469 4.64-2.363.985-5.199 1.478-8.507 1.478H77.24Zm9.57-8.667h4.305c1.114 0 2.059-.187 2.835-.561a4.092 4.092 0 0 0 1.823-1.734c.44-.816.675-1.852.71-3.11.033-.986.05-1.87.05-2.651.034-.782.034-1.564 0-2.346 0-.781-.017-1.648-.05-2.6-.068-1.87-.609-3.229-1.621-4.079-.98-.85-2.313-1.274-4-1.274h-4.052v18.355Z" fill="#EDE0D2"/></svg>